<svg xmlns="http://www.w3.org/2000/svg" version="1.1" xmlns:xlink="http://www.w3.org/1999/xlink" xmlns:svgjs="http://svgjs.dev/svgjs" width="2000" height="1242" viewBox="0 0 2000 1242"><g transform="matrix(1,0,0,1,-1.2121212121212466,0.7350952614777952)"><svg viewBox="0 0 396 246" data-background-color="#ffffff" preserveAspectRatio="xMidYMid meet" height="1242" width="2000" xmlns="http://www.w3.org/2000/svg" xmlns:xlink="http://www.w3.org/1999/xlink"><g id="tight-bounds" transform="matrix(1,0,0,1,0.2400000000000091,-0.1455985783603353)"><svg viewBox="0 0 395.52 246.29119715672067" height="246.29119715672067" width="395.52"><g><svg viewBox="0 0 396.9794500523099 247.20000000000002" height="246.29119715672067" width="395.52"><g transform="matrix(1,0,0,1,162.63332373767966,0)"><svg viewBox="0 0 234.34612631463025 247.20000000000002" height="247.20000000000002" width="234.34612631463025"><g id="textblocktransform"><svg viewBox="0 0 234.34612631463025 247.20000000000002" height="247.20000000000002" width="234.34612631463025" id="textblock"><g><svg viewBox="0 0 234.34612631463025 247.20000000000002" height="247.20000000000002" width="234.34612631463025"><g transform="matrix(1,0,0,1,0,0)"><svg width="234.34612631463025" viewBox="52.22 -32.1 100.88000000000002 103.41" height="247.20000000000002" data-palette-color="#264f0b"><svg></svg><svg></svg><svg></svg><g class="wordmark-text-0" data-fill-palette-color="primary" id="text-0"><path transform="translate(51.76,0)" d="M7.3 0.29v0c-1.987 0-3.45-0.427-4.39-1.28-0.947-0.853-1.51-2.323-1.69-4.41v0c-0.013-0.227-0.027-0.51-0.04-0.85-0.007-0.34 0.007-0.633 0.04-0.88v0c0.133-1.627 0.667-2.903 1.6-3.83 0.933-0.927 2.573-1.773 4.92-2.54v0c0.847-0.26 1.693-0.48 2.54-0.66 0.847-0.18 1.717-0.36 2.61-0.54v0-3.07c0-0.64-0.203-1.133-0.61-1.48-0.407-0.353-1.163-0.53-2.27-0.53v0c-0.96 0-1.657 0.143-2.09 0.43-0.427 0.287-0.667 0.747-0.72 1.38v0c-0.013 0.18-0.023 0.493-0.03 0.94-0.013 0.447-0.013 0.893 0 1.34 0.007 0.453 0.017 0.8 0.03 1.04v0h-5.22c-0.02-0.127-0.04-0.493-0.06-1.1-0.027-0.6-0.023-1.113 0.01-1.54v0c0.1-2.387 0.76-4.127 1.98-5.22 1.22-1.093 3.303-1.64 6.25-1.64v0c3.06 0 5.167 0.607 6.32 1.82 1.153 1.213 1.723 3.203 1.71 5.97v0l-0.03 16.36h-5.32v-2.56h-0.78c-0.507 0.993-1.11 1.717-1.81 2.17-0.7 0.453-1.683 0.68-2.95 0.68zM9.35-3.93v0c0.833 0 1.54-0.147 2.12-0.44 0.587-0.293 1.053-0.667 1.4-1.12v0-5.42c-0.64 0.093-1.273 0.207-1.9 0.34-0.627 0.127-1.273 0.273-1.94 0.44v0c-0.973 0.327-1.627 0.75-1.96 1.27-0.333 0.52-0.527 1.097-0.58 1.73v0c-0.047 0.507-0.037 0.93 0.03 1.27v0c0.18 1.287 1.123 1.93 2.83 1.93zM27.91-19.34v19.34h-5.38v-19.34h-2.63v-4.41h2.63v-1.35c0-2.52 0.627-4.317 1.88-5.39 1.253-1.073 3.2-1.61 5.84-1.61v0c1.027 0 2.027 0.087 3 0.26v0 4.28h-2.95c-1.593 0-2.39 0.667-2.39 2v0 1.81h4.37v4.41zM39.94-18.16v18.16h-5.37v-23.75h5.37v2.53h0.93c0.487-0.96 1.04-1.687 1.66-2.18 0.62-0.5 1.5-0.75 2.64-0.75v0c1.593 0 2.813 0.497 3.66 1.49 0.847 0.993 1.27 2.63 1.27 4.91v0c0 0.6-0.03 1.167-0.09 1.7-0.053 0.527-0.123 0.993-0.21 1.4v0h-4.8c0.013-0.327 0.023-0.797 0.03-1.41 0.007-0.62 0.01-1.013 0.01-1.18v0c0-1.007-0.193-1.697-0.58-2.07-0.393-0.373-0.9-0.56-1.52-0.56v0c-0.6 0-1.19 0.153-1.77 0.46-0.573 0.307-0.983 0.723-1.23 1.25zM59.11-31.69v4.47h-5.4v-4.47zM59.11-23.75v23.75h-5.4v-23.75zM79.93-14.65v0h-5.2c0.02-0.24 0.033-0.587 0.04-1.04 0.007-0.447 0.01-0.893 0.01-1.34 0-0.447-0.007-0.76-0.02-0.94v0c-0.033-0.633-0.307-1.093-0.82-1.38-0.513-0.287-1.34-0.43-2.48-0.43v0c-1.14 0-1.963 0.143-2.47 0.43-0.5 0.287-0.767 0.747-0.8 1.38v0c-0.08 1.887-0.12 3.89-0.12 6.01 0 2.113 0.04 4.09 0.12 5.93v0c0.033 0.733 0.307 1.253 0.82 1.56 0.513 0.313 1.353 0.47 2.52 0.47v0c1.127 0 1.937-0.157 2.43-0.47 0.5-0.307 0.767-0.827 0.8-1.56v0c0.013-0.307 0.02-0.743 0.02-1.31 0-0.56-0.017-1.19-0.05-1.89v0h5.2c0.047 0.133 0.077 0.487 0.09 1.06 0.007 0.58-0.007 1.09-0.04 1.53v0c-0.113 2.507-0.82 4.3-2.12 5.38-1.307 1.087-3.417 1.63-6.33 1.63v0c-2.993 0-5.16-0.543-6.5-1.63-1.347-1.08-2.083-2.873-2.21-5.38v0c-0.033-0.453-0.063-1.15-0.09-2.09-0.02-0.933-0.03-1.947-0.03-3.04 0-1.087 0.007-2.11 0.02-3.07 0.013-0.96 0.047-1.693 0.1-2.2v0c0.147-2.573 0.89-4.4 2.23-5.48 1.347-1.087 3.483-1.63 6.41-1.63v0c2.96 0 5.1 0.53 6.42 1.59 1.32 1.06 2.02 2.817 2.1 5.27v0c0.033 0.427 0.047 0.94 0.04 1.54-0.013 0.607-0.043 0.973-0.09 1.1zM88.53 0.29v0c-1.987 0-3.453-0.427-4.4-1.28-0.947-0.853-1.507-2.323-1.68-4.41v0c-0.02-0.227-0.033-0.51-0.04-0.85-0.007-0.34 0.007-0.633 0.04-0.88v0c0.127-1.627 0.66-2.903 1.6-3.83 0.933-0.927 2.57-1.773 4.91-2.54v0c0.847-0.26 1.693-0.48 2.54-0.66 0.847-0.18 1.72-0.36 2.62-0.54v0-3.07c0-0.64-0.203-1.133-0.61-1.48-0.407-0.353-1.163-0.53-2.27-0.53v0c-0.967 0-1.663 0.143-2.09 0.43-0.433 0.287-0.673 0.747-0.72 1.38v0c-0.02 0.18-0.033 0.493-0.04 0.94-0.007 0.447-0.007 0.893 0 1.34 0.007 0.453 0.02 0.8 0.04 1.04v0h-5.23c-0.013-0.127-0.033-0.493-0.06-1.1-0.02-0.6-0.017-1.113 0.01-1.54v0c0.1-2.387 0.76-4.127 1.98-5.22 1.22-1.093 3.303-1.64 6.25-1.64v0c3.06 0 5.17 0.607 6.33 1.82 1.153 1.213 1.72 3.203 1.7 5.97v0l-0.02 16.36h-5.32v-2.56h-0.78c-0.507 0.993-1.11 1.717-1.81 2.17-0.7 0.453-1.683 0.68-2.95 0.68zM90.58-3.93v0c0.827 0 1.533-0.147 2.12-0.44 0.587-0.293 1.05-0.667 1.39-1.12v0-5.42c-0.633 0.093-1.263 0.207-1.89 0.34-0.627 0.127-1.273 0.273-1.94 0.44v0c-0.98 0.327-1.637 0.75-1.97 1.27-0.333 0.52-0.523 1.097-0.57 1.73v0c-0.047 0.507-0.04 0.93 0.02 1.27v0c0.18 1.287 1.127 1.93 2.84 1.93z" fill="#264f0b" fill-rule="nonzero" stroke="none" stroke-width="1" stroke-linecap="butt" stroke-linejoin="miter" stroke-miterlimit="10" stroke-dasharray="" stroke-dashoffset="0" font-family="none" font-weight="none" font-size="none" text-anchor="none" style="mix-blend-mode: normal" data-fill-palette-color="primary" opacity="1"></path><path transform="translate(50.44,35.47)" d="M7.15-18.16v18.16h-5.37v-31.69h5.37v10.47h1c0.587-0.96 1.23-1.687 1.93-2.18 0.7-0.5 1.717-0.75 3.05-0.75v0c1.807 0 3.2 0.51 4.18 1.53 0.973 1.02 1.46 2.733 1.46 5.14v0 17.48h-5.34v-17.99c0-1.253-0.823-1.88-2.47-1.88v0c-0.793 0-1.547 0.153-2.26 0.46-0.707 0.307-1.223 0.723-1.55 1.25zM30.79 0.37v0c-3.027 0-5.217-0.543-6.57-1.63-1.353-1.08-2.093-2.873-2.22-5.38v0c-0.033-0.453-0.063-1.15-0.09-2.09-0.02-0.933-0.03-1.947-0.03-3.04 0-1.087 0.007-2.11 0.02-3.07 0.013-0.96 0.047-1.693 0.1-2.2v0c0.147-2.573 0.903-4.4 2.27-5.48 1.367-1.087 3.523-1.63 6.47-1.63v0c2.893 0 4.997 0.53 6.31 1.59 1.307 1.06 2.017 2.817 2.13 5.27v0c0.033 0.28 0.063 0.787 0.09 1.52 0.027 0.733 0.033 1.54 0.02 2.42-0.007 0.873-0.05 1.687-0.13 2.44v0h-11.89c0 0.86 0.007 1.7 0.02 2.52 0.02 0.827 0.047 1.613 0.08 2.36v0c0.013 0.733 0.287 1.253 0.82 1.56 0.527 0.313 1.383 0.47 2.57 0.47v0c1.127 0 1.923-0.157 2.39-0.47 0.473-0.307 0.743-0.827 0.81-1.56v0c0.033-0.653 0.033-1.72 0-3.2v0h5.2c0.033 0.133 0.053 0.487 0.06 1.06 0.007 0.58-0.007 1.09-0.04 1.53v0c-0.113 2.507-0.807 4.3-2.08 5.38-1.28 1.087-3.383 1.63-6.31 1.63zM27.27-14.97v0h6.71c0.02-0.713 0.03-1.363 0.03-1.95 0-0.587-0.017-0.937-0.05-1.05v0c-0.067-0.633-0.343-1.093-0.83-1.38-0.487-0.287-1.283-0.43-2.39-0.43v0c-1.187 0-2.037 0.143-2.55 0.43-0.513 0.287-0.787 0.747-0.82 1.38v0c-0.02 0.473-0.037 0.963-0.05 1.47-0.02 0.5-0.037 1.01-0.05 1.53zM47.75 0.29v0c-1.98 0-3.443-0.427-4.39-1.28-0.947-0.853-1.51-2.323-1.69-4.41v0c-0.013-0.227-0.023-0.51-0.03-0.85-0.007-0.34 0.003-0.633 0.03-0.88v0c0.133-1.627 0.667-2.903 1.6-3.83 0.94-0.927 2.58-1.773 4.92-2.54v0c0.847-0.26 1.693-0.48 2.54-0.66 0.847-0.18 1.717-0.36 2.61-0.54v0-3.07c0-0.64-0.203-1.133-0.61-1.48-0.407-0.353-1.163-0.53-2.27-0.53v0c-0.96 0-1.653 0.143-2.08 0.43-0.433 0.287-0.673 0.747-0.72 1.38v0c-0.02 0.18-0.033 0.493-0.04 0.94-0.007 0.447-0.007 0.893 0 1.34 0.007 0.453 0.02 0.8 0.04 1.04v0h-5.23c-0.013-0.127-0.033-0.493-0.06-1.1-0.027-0.6-0.023-1.113 0.01-1.54v0c0.1-2.387 0.76-4.127 1.98-5.22 1.22-1.093 3.303-1.64 6.25-1.64v0c3.06 0 5.167 0.607 6.32 1.82 1.16 1.213 1.73 3.203 1.71 5.97v0l-0.02 16.36h-5.32v-2.56h-0.79c-0.5 0.993-1.1 1.717-1.8 2.17-0.7 0.453-1.687 0.68-2.96 0.68zM49.8-3.93v0c0.833 0 1.543-0.147 2.13-0.44 0.587-0.293 1.05-0.667 1.39-1.12v0-5.42c-0.633 0.093-1.263 0.207-1.89 0.34-0.627 0.127-1.273 0.273-1.94 0.44v0c-0.98 0.327-1.637 0.75-1.97 1.27-0.333 0.52-0.523 1.097-0.57 1.73v0c-0.047 0.507-0.04 0.93 0.02 1.27v0c0.18 1.287 1.123 1.93 2.83 1.93zM67.99-31.69v31.69h-5.44v-31.69zM81.15 0.37v0c-2.927 0-5.007-0.543-6.24-1.63-1.227-1.08-1.84-2.873-1.84-5.38v0-12.7h-2.29v-4.41h2.32v-6.74h5.39v6.74h4.32v4.41h-4.39v13.36c0 0.7 0.18 1.207 0.54 1.52 0.353 0.32 1.1 0.48 2.24 0.48v0c0.36 0 0.69-0.003 0.99-0.01 0.3-0.007 0.647-0.02 1.04-0.04v0 4.2c-0.293 0.08-0.617 0.133-0.97 0.16-0.347 0.027-0.717 0.04-1.11 0.04zM91.04-18.16v18.16h-5.37v-31.69h5.37v10.47h1c0.587-0.96 1.23-1.687 1.93-2.18 0.7-0.5 1.717-0.75 3.05-0.75v0c1.807 0 3.2 0.51 4.18 1.53 0.973 1.02 1.46 2.733 1.46 5.14v0 17.48h-5.35v-17.99c0-1.253-0.82-1.88-2.46-1.88v0c-0.8 0-1.553 0.153-2.26 0.46-0.707 0.307-1.223 0.723-1.55 1.25z" fill="#fd6c23" fill-rule="nonzero" stroke="none" stroke-width="1" stroke-linecap="butt" stroke-linejoin="miter" stroke-miterlimit="10" stroke-dasharray="" stroke-dashoffset="0" font-family="none" font-weight="none" font-size="none" text-anchor="none" style="mix-blend-mode: normal" data-fill-palette-color="accent" opacity="1"></path><path transform="translate(52.12,70.94)" d="M18.65-14.65v0h-5.2c0.02-0.24 0.033-0.587 0.04-1.04 0.007-0.447 0.01-0.893 0.01-1.34 0-0.447-0.007-0.76-0.02-0.94v0c-0.033-0.633-0.307-1.093-0.82-1.38-0.513-0.287-1.34-0.43-2.48-0.43v0c-1.14 0-1.963 0.143-2.47 0.43-0.5 0.287-0.767 0.747-0.8 1.38v0c-0.08 1.887-0.12 3.89-0.12 6.01 0 2.113 0.04 4.09 0.12 5.93v0c0.033 0.733 0.307 1.253 0.82 1.56 0.513 0.313 1.353 0.47 2.52 0.47v0c1.127 0 1.937-0.157 2.43-0.47 0.5-0.307 0.767-0.827 0.8-1.56v0c0.013-0.307 0.02-0.743 0.02-1.31 0-0.56-0.017-1.19-0.05-1.89v0h5.2c0.053 0.133 0.083 0.487 0.09 1.06 0.007 0.58-0.007 1.09-0.04 1.53v0c-0.113 2.507-0.82 4.3-2.12 5.38-1.307 1.087-3.417 1.63-6.33 1.63v0c-2.993 0-5.16-0.543-6.5-1.63-1.347-1.08-2.083-2.873-2.21-5.38v0c-0.033-0.453-0.063-1.15-0.09-2.09-0.02-0.933-0.03-1.947-0.03-3.04 0-1.087 0.007-2.11 0.02-3.07 0.013-0.96 0.047-1.693 0.1-2.2v0c0.147-2.573 0.89-4.4 2.23-5.48 1.347-1.087 3.483-1.63 6.41-1.63v0c2.96 0 5.1 0.53 6.42 1.59 1.32 1.06 2.02 2.817 2.1 5.27v0c0.033 0.427 0.047 0.94 0.04 1.54-0.007 0.607-0.037 0.973-0.09 1.1zM30.13 0.37v0c-3.08 0-5.253-0.607-6.52-1.82-1.273-1.213-1.973-3.243-2.1-6.09v0c-0.047-0.607-0.083-1.473-0.11-2.6-0.027-1.133-0.03-2.273-0.01-3.42 0.013-1.147 0.053-2.053 0.12-2.72v0c0.147-2.82 0.847-4.837 2.1-6.05 1.253-1.213 3.427-1.82 6.52-1.82v0c3.107 0 5.28 0.613 6.52 1.84 1.233 1.22 1.917 3.23 2.05 6.03v0c0.06 0.613 0.1 1.483 0.12 2.61 0.013 1.12 0.013 2.253 0 3.4-0.02 1.153-0.06 2.063-0.12 2.73v0c-0.147 2.813-0.837 4.833-2.07 6.06-1.227 1.233-3.393 1.85-6.5 1.85zM30.13-4v0c1.14 0 1.953-0.18 2.44-0.54 0.487-0.36 0.747-0.863 0.78-1.51v0c0.08-1.84 0.12-3.793 0.12-5.86 0-2.067-0.04-4.02-0.12-5.86v0c-0.033-0.653-0.29-1.15-0.77-1.49-0.48-0.347-1.297-0.52-2.45-0.52v0c-1.14 0-1.963 0.173-2.47 0.52-0.507 0.34-0.773 0.837-0.8 1.49v0c-0.1 1.84-0.153 3.797-0.16 5.87-0.013 2.073 0.04 4.023 0.16 5.85v0c0.027 0.647 0.297 1.15 0.81 1.51 0.513 0.36 1.333 0.54 2.46 0.54zM47.53 0.37v0c-1.82 0-3.21-0.513-4.17-1.54-0.96-1.027-1.49-2.737-1.59-5.13v0c-0.047-0.633-0.08-1.447-0.1-2.44-0.013-0.993-0.02-2.043-0.02-3.15 0-1.107 0.007-2.157 0.02-3.15 0.02-0.993 0.053-1.807 0.1-2.44v0c0.1-2.407 0.643-4.12 1.63-5.14 0.98-1.02 2.39-1.53 4.23-1.53v0c1.367 0 2.403 0.25 3.11 0.75 0.713 0.493 1.363 1.22 1.95 2.18v0h0.85v-10.47h5.35v31.69h-5.35v-2.56h-0.85c-0.607 0.94-1.277 1.663-2.01 2.17-0.733 0.507-1.783 0.76-3.15 0.76zM49.61-3.93v0c0.847 0 1.633-0.153 2.36-0.46 0.72-0.313 1.243-0.723 1.57-1.23v0-12.54c-0.327-0.527-0.85-0.943-1.57-1.25-0.727-0.307-1.507-0.46-2.34-0.46v0c-1.607 0-2.443 0.627-2.51 1.88v0c-0.067 1.153-0.113 2.483-0.14 3.99-0.02 1.507-0.02 2.99 0 4.45 0.027 1.467 0.073 2.72 0.14 3.76v0c0.047 0.64 0.263 1.11 0.65 1.41 0.38 0.3 0.993 0.45 1.84 0.45zM70.97 0.37v0c-3.027 0-5.217-0.543-6.57-1.63-1.347-1.08-2.087-2.873-2.22-5.38v0c-0.033-0.453-0.06-1.15-0.08-2.09-0.027-0.933-0.04-1.947-0.04-3.04 0-1.087 0.007-2.11 0.02-3.07 0.02-0.96 0.053-1.693 0.1-2.2v0c0.147-2.573 0.903-4.4 2.27-5.48 1.367-1.087 3.523-1.63 6.47-1.63v0c2.9 0 5.003 0.53 6.31 1.59 1.313 1.06 2.027 2.817 2.14 5.27v0c0.033 0.28 0.063 0.787 0.09 1.52 0.02 0.733 0.027 1.54 0.02 2.42-0.007 0.873-0.05 1.687-0.13 2.44v0h-11.89c0 0.86 0.007 1.7 0.02 2.52 0.013 0.827 0.037 1.613 0.07 2.36v0c0.02 0.733 0.293 1.253 0.82 1.56 0.533 0.313 1.393 0.47 2.58 0.47v0c1.12 0 1.917-0.157 2.39-0.47 0.473-0.307 0.743-0.827 0.81-1.56v0c0.027-0.653 0.027-1.72 0-3.2v0h5.2c0.027 0.133 0.047 0.487 0.06 1.06 0.007 0.58-0.007 1.09-0.04 1.53v0c-0.113 2.507-0.81 4.3-2.09 5.38-1.273 1.087-3.377 1.63-6.31 1.63zM67.46-14.97v0h6.71c0.013-0.713 0.02-1.363 0.02-1.95 0-0.587-0.013-0.937-0.04-1.05v0c-0.067-0.633-0.343-1.093-0.83-1.38-0.493-0.287-1.293-0.43-2.4-0.43v0c-1.187 0-2.037 0.143-2.55 0.43-0.513 0.287-0.787 0.747-0.82 1.38v0c-0.013 0.473-0.03 0.963-0.05 1.47-0.013 0.5-0.027 1.01-0.04 1.53zM90.19 0.37v0c-2.947 0-5.037-0.543-6.27-1.63-1.227-1.08-1.897-2.873-2.01-5.38v0c-0.02-0.44-0.023-0.95-0.01-1.53 0.007-0.573 0.027-0.927 0.06-1.06v0h4.73c-0.027 0.7-0.037 1.33-0.03 1.89 0.007 0.567 0.017 1.003 0.03 1.31v0c0.033 0.733 0.323 1.253 0.87 1.56 0.547 0.313 1.423 0.47 2.63 0.47v0c1.313 0 2.257-0.157 2.83-0.47 0.567-0.307 0.86-0.827 0.88-1.56v0c0.013-0.327 0.023-0.513 0.03-0.56 0.013-0.053 0.023-0.103 0.03-0.15 0.007-0.047 0.003-0.227-0.01-0.54v0c-0.02-0.42-0.19-0.773-0.51-1.06-0.313-0.28-0.95-0.48-1.91-0.6v0l-3.25-0.78c-2.247-0.5-3.873-1.223-4.88-2.17-1.013-0.947-1.55-2.28-1.61-4v0c-0.02-0.36-0.003-0.737 0.05-1.13v0c0.027-2.553 0.667-4.38 1.92-5.48 1.253-1.1 3.477-1.65 6.67-1.65v0c2.98 0 5.077 0.53 6.29 1.59 1.213 1.06 1.877 2.817 1.99 5.27v0c0 0.427-0.007 0.94-0.02 1.54-0.007 0.607-0.027 0.973-0.06 1.1v0h-4.93c0.033-0.24 0.053-0.587 0.06-1.04 0.007-0.447 0.007-0.893 0-1.34-0.007-0.447-0.017-0.76-0.03-0.94v0c-0.033-0.633-0.287-1.093-0.76-1.38-0.473-0.287-1.32-0.43-2.54-0.43v0c-1.24 0-2.1 0.143-2.58 0.43-0.48 0.287-0.743 0.747-0.79 1.38v0c-0.013 0.313-0.033 0.53-0.06 0.65-0.027 0.12-0.03 0.417-0.01 0.89v0c0.033 0.507 0.18 0.933 0.44 1.28 0.26 0.353 0.96 0.603 2.1 0.75v0l2.95 0.58c2.167 0.44 3.783 1.127 4.85 2.06 1.067 0.94 1.6 2.33 1.6 4.17v0c0 0.16 0 0.337 0 0.53 0 0.2-0.01 0.39-0.03 0.57v0c-0.067 2.453-0.753 4.21-2.06 5.27-1.313 1.06-3.53 1.59-6.65 1.59z" fill="#264f0b" fill-rule="nonzero" stroke="none" stroke-width="1" stroke-linecap="butt" stroke-linejoin="miter" stroke-miterlimit="10" stroke-dasharray="" stroke-dashoffset="0" font-family="none" font-weight="none" font-size="none" text-anchor="none" style="mix-blend-mode: normal" data-fill-palette-color="primary" opacity="1"></path></g></svg></g></svg></g></svg></g></svg></g><g transform="matrix(1,0,0,1,0,51.28306859394776)"><svg viewBox="0 0 144.8259060624415 144.6338628121045" height="144.6338628121045" width="144.8259060624415"><g><svg xmlns="http://www.w3.org/2000/svg" xml:space="preserve" viewBox="21.121 21.16 57.757588196618116 57.68100000000001" x="0" y="0" height="144.6338628121045" width="144.8259060624415" class="icon-icon-0" data-fill-palette-color="accent" id="icon-0"><path d="M73.525 24.311c-0.922-0.818-2.3-0.7-3.084 0.175a2.15 2.15 0 0 0 0.175 3.081c4.606 4.338 5.222 10.291 1.01 15.007-4.028 4.506-10.491 5.19-15.247 0.938-4.635-4.138-4.522-11.234-0.44-15.469 0.94-0.966 2.25-2.344 0.625-3.8-1.469-1.307-3.02-0.069-4.062 1.1-5.816 6.513-5.46 15.688 0.969 21.428 3.23 2.882 7.144 4.195 10.978 3.957 1.456 0.381 2.894 1.412 2.894 3.209 0 2.068-1.344 3.639-3.584 5.26-4.584 3.191-8.56 6.043-8.56 11.025 0 4.141 2.8 8.619 10.072 8.619 3.247 0 7.056-2.635 7.278-5.936 0.053-1.23-1.01-2.236-2.241-2.236-0.95 0-1.453 0.391-1.906 1.23-0.725 1.566-2.347 2.629-4.193 2.629-2.463 0-4.647-1.9-4.647-4.307 0-2.857 1.794-4.369 5.041-6.607 4.031-2.74 7.106-5.256 7.106-9.678 0-1.797-0.734-3.377-1.851-4.634 1.819-0.878 3.531-2.146 5.025-3.818 6.033-6.77 4.955-15.308-1.358-21.173" fill="#fd6c23" data-fill-palette-color="accent"></path><path d="M57.247 26.095c-1.34 0-2.462-1.118-2.462-2.462s1.122-2.463 2.462-2.463c1.344 0 2.463 1.119 2.463 2.463s-1.119 2.462-2.463 2.462M69.923 26.249c-1.344 0-2.463-1.119-2.463-2.463s1.119-2.462 2.463-2.462 2.462 1.118 2.462 2.462-1.118 2.463-2.462 2.463M69.785 71.527c-1.088-0.436-1.591-1.727-1.153-2.816 0.459-1.141 1.693-1.668 2.784-1.23l2.109 0.85c1.041 0.418 1.622 1.674 1.166 2.818-0.438 1.084-1.75 1.65-2.844 1.209zM23.251 32.699h5.037v4.981c0 1.172 1.006 2.181 2.182 2.181 1.23 0 2.181-1.009 2.181-2.125v-5.037h5.044c1.175 0 2.128-0.95 2.128-2.182 0-1.175-0.953-2.185-2.128-2.185H32.65v-5.04c0-1.175-0.95-2.132-2.181-2.132-1.176 0-2.182 0.957-2.182 2.132v5.04h-4.981c-1.175 0-2.185 1.01-2.185 2.185 0.001 1.232 1.011 2.182 2.13 2.182" fill="#fd6c23" data-fill-palette-color="accent"></path></svg></g></svg></g></svg></g><defs></defs></svg><rect width="395.52" height="246.29119715672067" fill="none" stroke="none" visibility="hidden"></rect></g></svg></g></svg>